<svg xmlns="http://www.w3.org/2000/svg" width="512" height="512" viewBox="0 0 512 512" role="img" aria-labelledby="title"><title id="title">Storm Outlook</title><defs><radialGradient id="sky" cx="50%" cy="30%" r="85%"><stop stop-color="#aab1df" stop-opacity=".23"/><stop offset="1" stop-color="#0c1b19"/></radialGradient></defs><path fill="#10221f" d="M0 0H512V512H0Z"/><path fill="url(#sky)" d="M0 0H512V512H0Z"/><circle cx="371" cy="145" r="54" fill="#cfb88a" opacity=".65"/><path d="M0 380L103 291L197 377L308 278L512 397V512H0Z" fill="#2c484b"/><path d="M80 262Q44 205 106 182Q95 110 174 124Q236 61 295 143Q371 121 390 191Q456 199 425 262Z" fill="#687582"/><path d="M78 263Q186 216 290 259T430 258" fill="none" stroke="#9baab0" stroke-width="7"/><path d="M165 298L150 337M247 306L232 345M328 293L313 332" stroke="#92bcc9" stroke-width="7" stroke-linecap="round"/><path d="M0 449Q134 385 263 436T512 425V512H0Z" fill="#183a35"/></svg>
