<svg xmlns="http://www.w3.org/2000/svg" width="512" height="512" viewBox="0 0 512 512" role="img" aria-labelledby="title"><title id="title">Tidal Tone</title><defs><radialGradient id="sky" cx="50%" cy="30%" r="85%"><stop stop-color="#83c6d3" stop-opacity=".23"/><stop offset="1" stop-color="#0c1b19"/></radialGradient></defs><path fill="#10221f" d="M0 0H512V512H0Z"/><path fill="url(#sky)" d="M0 0H512V512H0Z"/><circle cx="256" cy="225" r="146" fill="none" stroke="#80aebd" stroke-width="2" opacity=".35"/><path d="M328 94A58 58 0 1 0 398 161A62 62 0 0 1 328 94Z" fill="#d7d9b1"/><path d="M0 346Q83 296 165 338T334 333T512 339V512H0Z" fill="#245762"/><path d="M0 404Q80 365 171 401T343 397T512 399" fill="none" stroke="#61a8b4" stroke-width="8"/><path d="M0 462Q80 423 171 459T343 455T512 457" fill="none" stroke="#438391" stroke-width="5"/><path d="M183 298V166L282 145V274M183 184L282 163" fill="none" stroke="#d0ded0" stroke-width="10" stroke-linejoin="round"/><ellipse cx="162" cy="299" rx="26" ry="18" fill="#d0ded0" transform="rotate(-20 162 299)"/><ellipse cx="261" cy="275" rx="26" ry="18" fill="#d0ded0" transform="rotate(-20 261 275)"/></svg>
